<mxfile host="app.diagrams.net" modified="2023-06-29T16:21:15.525Z" agent="Mozilla/5.0 (Windows NT 10.0; Win64; x64) AppleWebKit/537.36 (KHTML, like Gecko) Chrome/114.0.0.0 Safari/537.36" etag="sJ48rL576LU0-9iNv_e-" version="21.5.2" type="device">
  <diagram name="Page-1" id="D7ufYN1gUrk_3oF_Y9HR">
    <mxGraphModel dx="1034" dy="725" grid="1" gridSize="10" guides="1" tooltips="1" connect="1" arrows="1" fold="1" page="1" pageScale="1" pageWidth="850" pageHeight="1100" math="0" shadow="0">
      <root>
        <mxCell id="0" />
        <mxCell id="1" parent="0" />
        <mxCell id="pT0nT7KCX6GfvaLhe0dh-1" value="Employee" style="rounded=0;whiteSpace=wrap;html=1;fontSize=16;" vertex="1" parent="1">
          <mxGeometry x="160" y="150" width="220" height="60" as="geometry" />
        </mxCell>
        <mxCell id="pT0nT7KCX6GfvaLhe0dh-2" value="name:String&lt;br&gt;email:String&lt;br&gt;gender:char" style="rounded=0;whiteSpace=wrap;html=1;fontSize=16;" vertex="1" parent="1">
          <mxGeometry x="160" y="210" width="220" height="140" as="geometry" />
        </mxCell>
        <mxCell id="pT0nT7KCX6GfvaLhe0dh-3" value="+Employee(name: String,email: String, gender : char)&lt;br&gt;+getName(): String&lt;br&gt;+getEmail():String&lt;br&gt;+setEmail(email:String): void&lt;br&gt;+getGender(): char&lt;br&gt;+toString(): String" style="rounded=0;whiteSpace=wrap;html=1;fontSize=16;" vertex="1" parent="1">
          <mxGeometry x="160" y="350" width="220" height="250" as="geometry" />
        </mxCell>
      </root>
    </mxGraphModel>
  </diagram>
</mxfile>
